<svg width="24" height="24" viewBox="0 0 24 24" fill="none" xmlns="http://www.w3.org/2000/svg">
<path d="M9.17188 17.1215C9.67969 17.3793 10.1367 17.6957 10.543 18.0707C10.9492 18.4457 11.3008 18.8676 11.5977 19.3363C11.8945 19.8051 12.1172 20.3051 12.2656 20.8363C12.4141 21.3676 12.4922 21.9222 12.5 22.5004H11C11 21.8832 10.8828 21.3011 10.6484 20.7543C10.4141 20.2074 10.0938 19.7308 9.6875 19.3246C9.28125 18.9183 8.80078 18.5941 8.24609 18.3519C7.69141 18.1097 7.10938 17.9926 6.5 18.0004C5.875 18.0004 5.29297 18.1176 4.75391 18.3519C4.21484 18.5863 3.73828 18.9066 3.32422 19.3129C2.91016 19.7191 2.58594 20.1996 2.35156 20.7543C2.11719 21.309 2 21.891 2 22.5004H0.5C0.5 21.9301 0.578125 21.3793 0.734375 20.848C0.890625 20.3168 1.11328 19.8168 1.40234 19.348C1.69141 18.8793 2.03906 18.4574 2.44531 18.0824C2.85156 17.7074 3.3125 17.3871 3.82812 17.1215C3.25 16.6918 2.80078 16.1605 2.48047 15.5277C2.16016 14.8949 2 14.2191 2 13.5004C2 12.8832 2.11719 12.3011 2.35156 11.7543C2.58594 11.2074 2.90625 10.7308 3.3125 10.3246C3.71875 9.91833 4.19531 9.59412 4.74219 9.35193C5.28906 9.10974 5.875 8.99255 6.5 9.00037C7.21875 9.00037 7.89453 9.16052 8.52734 9.48083C9.16016 9.80115 9.69141 10.2504 10.1211 10.8285C10.418 10.2426 10.7969 9.71912 11.2578 9.25818C11.7188 8.79724 12.2422 8.41833 12.8281 8.12146C12.25 7.69177 11.8008 7.16052 11.4805 6.52771C11.1602 5.8949 11 5.21912 11 4.50037C11 3.88318 11.1172 3.30115 11.3516 2.75427C11.5859 2.2074 11.9062 1.73083 12.3125 1.32458C12.7188 0.918335 13.1953 0.594116 13.7422 0.351929C14.2891 0.109741 14.875 -0.00744629 15.5 0.000366211C16.1172 0.000366211 16.6992 0.117554 17.2461 0.351929C17.793 0.586304 18.2695 0.906616 18.6758 1.31287C19.082 1.71912 19.4062 2.19958 19.6484 2.75427C19.8906 3.30896 20.0078 3.89099 20 4.50037C20 5.21912 19.8398 5.8949 19.5195 6.52771C19.1992 7.16052 18.75 7.69177 18.1719 8.12146C18.6797 8.37927 19.1367 8.69568 19.543 9.07068C19.9492 9.44568 20.3008 9.86755 20.5977 10.3363C20.8945 10.8051 21.1172 11.3051 21.2656 11.8363C21.4141 12.3676 21.4922 12.9222 21.5 13.5004H20C20 12.8832 19.8828 12.3011 19.6484 11.7543C19.4141 11.2074 19.0938 10.7308 18.6875 10.3246C18.2812 9.91833 17.8008 9.59412 17.2461 9.35193C16.6914 9.10974 16.1094 8.99255 15.5 9.00037C14.875 9.00037 14.293 9.11755 13.7539 9.35193C13.2148 9.5863 12.7383 9.90662 12.3242 10.3129C11.9102 10.7191 11.5859 11.1996 11.3516 11.7543C11.1172 12.309 11 12.891 11 13.5004C11 14.2191 10.8398 14.8949 10.5195 15.5277C10.1992 16.1605 9.75 16.6918 9.17188 17.1215ZM12.5 4.50037C12.5 4.91443 12.5781 5.30115 12.7344 5.66052C12.8906 6.0199 13.1055 6.34021 13.3789 6.62146C13.6523 6.90271 13.9688 7.11755 14.3281 7.26599C14.6875 7.41443 15.0781 7.49255 15.5 7.50037C15.9141 7.50037 16.3008 7.42224 16.6602 7.26599C17.0195 7.10974 17.3398 6.8949 17.6211 6.62146C17.9023 6.34802 18.1172 6.03162 18.2656 5.67224C18.4141 5.31287 18.4922 4.92224 18.5 4.50037C18.5 4.0863 18.4219 3.69958 18.2656 3.34021C18.1094 2.98083 17.8945 2.66052 17.6211 2.37927C17.3477 2.09802 17.0312 1.88318 16.6719 1.73474C16.3125 1.5863 15.9219 1.50818 15.5 1.50037C15.0859 1.50037 14.6992 1.57849 14.3398 1.73474C13.9805 1.89099 13.6602 2.10583 13.3789 2.37927C13.0977 2.65271 12.8828 2.96912 12.7344 3.32849C12.5859 3.68787 12.5078 4.07849 12.5 4.50037ZM3.5 13.5004C3.5 13.9144 3.57812 14.3011 3.73438 14.6605C3.89062 15.0199 4.10547 15.3402 4.37891 15.6215C4.65234 15.9027 4.96875 16.1176 5.32812 16.266C5.6875 16.4144 6.07812 16.4926 6.5 16.5004C6.91406 16.5004 7.30078 16.4222 7.66016 16.266C8.01953 16.1097 8.33984 15.8949 8.62109 15.6215C8.90234 15.348 9.11719 15.0316 9.26562 14.6722C9.41406 14.3129 9.49219 13.9222 9.5 13.5004C9.5 13.0863 9.42188 12.6996 9.26562 12.3402C9.10938 11.9808 8.89453 11.6605 8.62109 11.3793C8.34766 11.098 8.03125 10.8832 7.67188 10.7347C7.3125 10.5863 6.92188 10.5082 6.5 10.5004C6.08594 10.5004 5.69922 10.5785 5.33984 10.7347C4.98047 10.891 4.66016 11.1058 4.37891 11.3793C4.09766 11.6527 3.88281 11.9691 3.73438 12.3285C3.58594 12.6879 3.50781 13.0785 3.5 13.5004ZM21.125 24.0004L17.75 21.3636L14.375 24.0004L15.7344 19.7816L12.5 17.2504H16.543L17.75 13.5004L18.957 17.2504H23L19.7656 19.7816L21.125 24.0004Z" fill="currentColor"/>
</svg>