<svg width="24" height="24" viewBox="0 0 24 24" fill="none" xmlns="http://www.w3.org/2000/svg">
<path d="M12 21C16.9706 21 21 16.9706 21 12C21 7.02944 16.9706 3 12 3C7.02944 3 3 7.02944 3 12C3 16.9706 7.02944 21 12 21Z" stroke="#979797" stroke-width="2" stroke-miterlimit="10" stroke-linecap="round" stroke-linejoin="round"/>
<path d="M12 6.00007C11.0717 6.00007 10.1815 6.36882 9.52513 7.02519C8.86875 7.68157 8.5 8.57181 8.5 9.50007C8.5 9.76528 8.60536 10.0196 8.79289 10.2072C8.98043 10.3947 9.23478 10.5001 9.5 10.5001C9.76522 10.5001 10.0196 10.3947 10.2071 10.2072C10.3946 10.0196 10.5 9.76528 10.5 9.50007C10.5 9.2034 10.588 8.91339 10.7528 8.66671C10.9176 8.42004 11.1519 8.22778 11.426 8.11425C11.7001 8.00072 12.0017 7.97101 12.2926 8.02889C12.5836 8.08677 12.8509 8.22963 13.0607 8.43941C13.2704 8.64919 13.4133 8.91646 13.4712 9.20743C13.5291 9.4984 13.4994 9.8 13.3858 10.0741C13.2723 10.3482 13.08 10.5824 12.8334 10.7473C12.5867 10.9121 12.2967 11.0001 12 11.0001C11.7348 11.0001 11.4804 11.1054 11.2929 11.293C11.1054 11.4805 11 11.7349 11 12.0001V14.0001C11 14.2653 11.1054 14.5196 11.2929 14.7072C11.4804 14.8947 11.7348 15.0001 12 15.0001C12.2652 15.0001 12.5196 14.8947 12.7071 14.7072C12.8946 14.5196 13 14.2653 13 14.0001V12.8401C13.8081 12.6041 14.5037 12.0839 14.9585 11.3755C15.4133 10.6671 15.5967 9.81814 15.4749 8.98513C15.3532 8.15213 14.9344 7.39122 14.2958 6.84266C13.6572 6.29409 12.8418 5.99484 12 6.00007Z" fill="#979797"/>
<path d="M12 18C12.5523 18 13 17.5523 13 17C13 16.4477 12.5523 16 12 16C11.4477 16 11 16.4477 11 17C11 17.5523 11.4477 18 12 18Z" fill="#979797"/>
</svg>
