<svg width="19" height="19" viewBox="0 0 19 19" fill="none" xmlns="http://www.w3.org/2000/svg">
<path fill-rule="evenodd" clip-rule="evenodd" d="M16.6735 9.50055C16.674 11.1329 16.1255 12.7159 15.1197 13.9848C14.114 15.2537 12.7119 16.1317 11.148 16.4717C9.58407 16.8118 7.95322 16.5934 6.52817 15.853C5.10313 15.1127 3.97031 13.8952 3.31918 12.4044L1.16171 13.299C2.01698 15.2995 3.52087 16.9384 5.42053 17.9402C7.3202 18.9419 9.49981 19.2455 11.5929 18.7998C13.686 18.3541 15.565 17.1863 16.9139 15.4928C18.2629 13.7993 18.9995 11.6833 19 9.50055C19.0001 7.51777 18.3925 5.58465 17.2623 3.97212C16.1321 2.35958 14.536 1.14846 12.6976 0.508472C10.8593 -0.13151 8.87086 -0.168272 7.01103 0.403339C5.1512 0.97495 3.51318 2.12628 2.32653 3.69598V0.792119H0V7.12552L1.16327 8.31303H6.59184V5.93801H3.648C4.41592 4.57897 5.60178 3.51668 7.02155 2.91598C8.44132 2.31527 10.0156 2.20974 11.5002 2.61577C12.9847 3.0218 14.2964 3.91667 15.2318 5.16153C16.1672 6.40639 16.674 7.93162 16.6735 9.50055Z" fill="#4A4A4A"/>
</svg>
