<svg width="24" height="24" viewBox="0 0 24 24" fill="none" xmlns="http://www.w3.org/2000/svg">
<path fill-rule="evenodd" clip-rule="evenodd" d="M18.6735 12.5005C18.674 14.1329 18.1255 15.7159 17.1197 16.9848C16.114 18.2537 14.7119 19.1317 13.148 19.4717C11.5841 19.8118 9.95322 19.5934 8.52817 18.853C7.10313 18.1127 5.97031 16.8952 5.31918 15.4044L3.16171 16.299C4.01698 18.2995 5.52087 19.9384 7.42053 20.9402C9.3202 21.9419 11.4998 22.2455 13.5929 21.7998C15.686 21.3541 17.565 20.1863 18.9139 18.4928C20.2629 16.7993 20.9995 14.6833 21 12.5005C21.0001 10.5178 20.3925 8.58465 19.2623 6.97212C18.1321 5.35958 16.536 4.14846 14.6976 3.50847C12.8593 2.86849 10.8709 2.83173 9.01103 3.40334C7.1512 3.97495 5.51318 5.12628 4.32653 6.69598V3.79212H2V10.1255L3.16327 11.313H8.59184V8.93801H5.648C6.41592 7.57897 7.60178 6.51668 9.02155 5.91598C10.4413 5.31527 12.0156 5.20974 13.5002 5.61577C14.9847 6.0218 16.2964 6.91667 17.2318 8.16153C18.1672 9.40639 18.674 10.9316 18.6735 12.5005Z" fill="currentColor"/>
</svg>
