<svg width="24" height="24" viewBox="0 0 24 24" fill="none" xmlns="http://www.w3.org/2000/svg">
<path d="M20 8.73607V19C20 19.5523 19.5523 20 19 20H5C4.44772 20 4 19.5523 4 19V8.73607C4 8.3573 4.214 8.01103 4.55279 7.84164L11.5528 4.34164C11.8343 4.20088 12.1657 4.20088 12.4472 4.34164L19.4472 7.84164C19.786 8.01103 20 8.35729 20 8.73607Z" stroke="currentColor" stroke-width="2"/>
<path fill-rule="evenodd" clip-rule="evenodd" d="M12 8C11.4477 8 11 8.44772 11 9V12H8C7.44772 12 7 12.4477 7 13C7 13.5523 7.44772 14 8 14H11V17C11 17.5523 11.4477 18 12 18C12.5523 18 13 17.5523 13 17V14H16C16.5523 14 17 13.5523 17 13C17 12.4477 16.5523 12 16 12H13V9C13 8.44772 12.5523 8 12 8Z" fill="currentColor"/>
</svg>
