<svg width="24" height="24" viewBox="0 0 24 24" fill="none" xmlns="http://www.w3.org/2000/svg">
<path fill-rule="evenodd" clip-rule="evenodd" d="M23 12C23 18.0751 18.0751 23 12 23C5.92487 23 1 18.0751 1 12C1 5.92487 5.92487 1 12 1C18.0751 1 23 5.92487 23 12ZM9.55487 6.80539C9.55487 6.29913 9.96528 5.88872 10.4715 5.88872C10.9778 5.88872 11.3882 6.29912 11.3882 6.80539V12.6111H15.9717C16.478 12.6111 16.8884 13.0215 16.8884 13.5277C16.8884 14.034 16.478 14.4444 15.9717 14.4444H10.4717C10.2769 14.4444 10.0963 14.3836 9.94775 14.28C9.71026 14.1143 9.55487 13.8391 9.55487 13.5276V6.80539Z" fill="white"/>
</svg>
