<svg width="24" height="24" viewBox="0 0 24 24" fill="none" xmlns="http://www.w3.org/2000/svg">
<mask id="path-1-inside-1_833_8759" fill="white">
<rect x="4" y="5" width="16" height="4" rx="1"/>
</mask>
<rect x="4" y="5" width="16" height="4" rx="1" fill="white" stroke="white" stroke-width="3" mask="url(#path-1-inside-1_833_8759)"/>
<rect x="10" y="9" width="4" height="5" fill="white"/>
<mask id="path-3-inside-2_833_8759" fill="white">
<rect x="4" y="14" width="16" height="4" rx="1"/>
</mask>
<rect x="4" y="14" width="16" height="4" rx="1" fill="white" stroke="white" stroke-width="3" mask="url(#path-3-inside-2_833_8759)"/>
<path d="M8 3C8 2.44772 8.44772 2 9 2L15 2C15.5523 2 16 2.44772 16 3V5H8V3Z" fill="white"/>
<path d="M8 18H16V20C16 20.5523 15.5523 21 15 21H9C8.44772 21 8 20.5523 8 20V18Z" fill="white"/>
</svg>
