<svg width="240" height="240" viewBox="0 0 240 240" fill="none" xmlns="http://www.w3.org/2000/svg">
<path d="M118.544 107.844C119.037 107.856 119.463 107.866 119.518 107.842L130.478 112.282L145.599 118.406L161.051 124.477L161.241 125.091C161.397 125.558 161.315 125.999 160.849 127.189C160.131 129.025 159.526 129.531 157.707 129.899C155.849 130.253 154.03 130.103 151.471 129.417C148.715 128.653 146.905 127.787 144.634 126.133C142.929 124.88 142.662 124.753 136.258 122.157L129.541 119.403L122.732 116.611L116.439 113.57C115.586 112.629 115.473 111.819 115.97 110.258C116.525 108.494 117.266 107.816 118.544 107.844Z" fill="#121212"/>
<path d="M94.2352 41.0578C77.4136 41.4867 54.2485 40.8862 53.5034 41.0578C60.9838 41.0578 63.7314 44.8516 65.3898 47.1786C66.7868 49.139 70.7066 55.5409 67.3241 68.0884C66.7175 70.3386 65.3898 72.8065 65.8768 76.3434C66.2826 79.2916 69.7251 95.6085 73.5418 111.533L75.8842 121.044C77.1674 126.099 78.4323 130.802 79.5811 134.648H130.332C129.947 133.283 126.775 123.242 126.435 121.866C126.342 121.487 126.206 120.894 126.206 120.894L123.311 111.601L122.509 108.627C117.609 90.7551 115.889 82.4055 115.861 76.3434C115.832 72.7405 115.889 72.3402 116.663 70.3386C120.876 59.4727 120.986 53.9252 118.773 49.2679C117.455 46.4943 116.663 45.3869 114.488 43.8345C112.314 42.2821 108.922 41.0864 107.088 41.0578C105.254 41.0292 99.3647 40.9434 94.2352 41.0578Z" fill="#292929"/>
<path d="M130.331 134.64H79.7543L108.896 147.6C115.743 150.823 117.062 152.901 117.062 160.469C117.062 165.76 114.388 167.077 112.101 167.236L154.079 166.929L168.172 166.826C168.172 166.826 174.659 166.416 174.659 160.469C174.659 154.523 171.956 148.896 168.172 147.6L130.331 134.64Z" fill="#292929"/>
<path d="M53.5896 41C52.2095 41.2861 51.5566 41.4907 50.8018 41.9386C49.9879 42.4216 49.7224 42.7069 49.0767 43.226C48.431 43.7452 47.9206 44.4221 47.5672 45.0499C47.2138 45.6777 46.4015 47.6947 46.114 50.527C45.8265 53.5597 46.0853 57.9942 46.8616 63.7734C47.6379 69.5525 56.2636 106.03 56.7524 107.89C57.2412 109.749 57.615 111.294 57.5575 111.323L63.8393 111.397L66.0042 120.868C68.0169 128.425 72.1932 143.968 72.797 145.685C73.4008 147.401 79.1073 152.978 79.7543 152.901L108.896 166.826C108.896 166.826 110.39 167.354 112.101 167.236C114.388 167.077 117.062 165.76 117.062 160.469C117.062 152.901 115.743 150.823 108.896 147.6L79.7543 134.64C78.6016 130.792 77.3325 126.086 76.0451 121.029L73.6948 111.513C69.8654 95.5797 66.4115 79.2541 66.0042 76.3044C65.5157 72.7656 66.8478 70.2964 67.4564 68.045C70.8502 55.4908 66.9173 49.0855 65.5157 47.1241C63.8517 44.7958 61.095 41 53.5896 41Z" fill="#515151"/>
<path d="M57.5575 111.323C57.5 111.38 56.9537 111.58 56.3211 111.809C54.6822 112.41 54.0784 113.64 54.2509 116.158C54.3947 118.389 54.941 119.362 56.4936 120.135C57.0399 120.421 57.5862 120.678 57.7012 120.735L69.4322 169.715C70.2085 172.319 71.7324 175.237 72.7962 176.238C73.9751 177.354 75.1539 177.554 80.2718 177.583H84.6422V182.962C84.6422 185.937 84.5559 189.341 84.4697 190.514L84.2684 192.66L82.802 193.032C81.4219 193.375 79.7543 194.606 79.7543 195.292C79.7543 195.521 83.5208 198 92.2616 198C99.6797 198 104.769 195.493 104.769 195.35C104.769 194.291 103.302 193.261 101.232 192.889L100.168 192.689V177.583H104.711C109.197 177.583 111.152 177.325 111.583 176.639C111.698 176.438 111.871 175.552 111.957 174.636L112.101 173.005L113.107 174.35C113.653 175.094 114.746 176.095 115.522 176.582C116.93 177.439 116.96 177.44 121.925 177.525L121.934 177.526L126.908 177.64V185.193C126.908 191.029 126.822 192.746 126.563 192.746C125.643 192.746 123.975 193.404 123.17 194.062C121.33 195.636 121.186 198 134.815 198C145.597 198 147.322 195.55 147.322 195.178C147.322 194.463 146.086 193.576 144.39 193.089L142.722 192.603V177.583L147.409 177.554C150.226 177.554 152.469 177.411 153.073 177.211L154.079 176.868V166.929L112.101 167.236C110.39 167.354 108.896 166.826 108.896 166.826L79.7543 152.901C79.1073 152.978 73.4008 147.401 72.797 145.685C72.1932 143.968 68.0169 128.425 66.0042 120.868L63.8393 111.397L57.5575 111.323Z" fill="#121212"/>
<path d="M56.9178 107.844C57.4105 107.856 57.8368 107.866 57.8913 107.842L68.8517 112.282L83.9725 118.406L99.4246 124.477L99.6139 125.091C99.7707 125.558 99.6887 125.999 99.2226 127.189C98.5043 129.025 97.899 129.531 96.0805 129.899C94.2227 130.253 92.4033 130.103 89.8439 129.417C87.0884 128.653 85.2781 127.787 83.007 126.133C81.3026 124.88 81.0356 124.753 74.6311 122.157L67.9138 119.403L61.1055 116.611L54.8119 113.57C53.9588 112.629 53.8459 111.819 54.3438 110.258C54.8985 108.494 55.639 107.816 56.9178 107.844Z" fill="#121212"/>
<path d="M153.089 30.2791L130.846 53.0072L137.724 59.7382C142.797 54.7134 153.802 43.6896 157.244 39.7932C157.899 39.0517 158.469 38.3748 158.965 37.7468C162.429 33.3596 159.438 31.7286 157.774 30.7482C154.862 29.0327 154.446 28.7876 153.089 30.2791Z" fill="#ECA497"/>
<path d="M125.019 65.3715C127.082 67.818 131.038 66.1534 132.758 65.0153C134.478 63.8771 148.743 49.9001 148.743 49.9001C145.468 48.4707 142.444 43.5645 141.342 41.2901C141.342 41.2901 126.029 55.6279 125.132 57.2992C124.234 58.9706 122.955 62.9249 125.019 65.3715Z" fill="#FFCA28"/>
<path d="M74.4343 38.9023L99.971 57.6837L94.2875 65.4116C88.4894 61.2842 75.8902 52.2095 71.8777 48.9299C71.1141 48.3059 70.4442 47.7316 69.8553 47.1936C65.7414 43.4349 68.4216 41.3493 69.9009 40.1173C72.4897 37.9613 72.8595 37.6533 74.4343 38.9023Z" fill="#ECA497"/>
<path d="M107.693 68.9098C106.056 71.6485 101.897 70.6471 100.022 69.8041C98.1467 68.9611 81.8655 57.5055 81.8655 57.5055C84.8573 55.5726 87.0432 50.2598 87.7621 47.845C87.7621 47.845 105.132 59.4871 106.283 60.9869C107.435 62.4868 109.329 66.1711 107.693 68.9098Z" fill="#FFCA28"/>
<path d="M185.011 187.399C179.625 187.769 171.509 182.099 168.123 179.218C168.421 175.841 169.04 174.517 172.028 174.781C175.017 175.045 175.238 175.112 177.868 176.555C182.746 179.803 190.397 187.029 185.011 187.399Z" fill="#FFB300"/>
<path d="M215.591 199.714C212.477 204.124 202.955 206.838 198.583 207.644C196.153 205.28 195.518 203.965 197.609 201.814C199.7 199.663 199.892 199.534 202.672 198.407C208.271 196.674 218.705 195.304 215.591 199.714Z" fill="#FFB300"/>
<path d="M177.805 174.888L177.32 176.486C177.32 176.486 176.147 180.355 172.244 179.157C167.88 177.818 169.053 173.95 169.053 173.95L169.538 172.351L177.805 174.888Z" fill="#FFB300"/>
<path d="M168.565 172.786C179.655 139.226 182.058 125.1 181.872 122.232C181.611 119.17 182.532 116.895 184.839 114.907C187.785 112.367 191.326 112.301 194.541 114.316C197.81 116.365 199.169 119.203 198.423 123.647C196.777 132.039 184.284 161.233 177.874 174.868C173.194 176.578 169.472 174.25 168.565 172.786Z" fill="#2196F3"/>
<path d="M130.435 128.855C122.709 116.263 137.754 117.486 141.876 116.883C156.621 115.401 187.178 112.443 191.441 112.468C191.441 112.468 195.764 113.103 197.115 115.159C198.728 117.613 198.277 120.103 197.141 122.789C195.523 126.612 192.778 128.011 188.457 129.569C162.372 138.972 153.412 140.343 146.6 141.221C139.788 142.1 135.783 137.57 130.435 128.855Z" fill="#2196F3"/>
<path d="M201.29 197.228L202.426 198.421C202.426 198.421 205.176 201.31 202.133 204.206C198.731 207.444 195.982 204.556 195.982 204.556L194.846 203.362L201.29 197.228Z" fill="#FFB300"/>
<path d="M194.722 204.434C171.336 178.563 160.329 169.686 157.748 168.482C154.96 167.252 153.462 165.348 152.924 162.349C152.236 158.52 153.998 155.342 157.396 153.447C160.851 151.52 164.008 151.668 167.475 154.452C173.903 159.919 192.786 184.954 201.309 197.156C200.386 202.131 196.457 204.327 194.722 204.434Z" fill="#64B5F6"/>
<path d="M110.238 120.98C113.989 106.731 123.601 118.452 126.916 121.017C138.284 130.661 161.759 150.723 164.716 153.823C164.716 153.823 167.272 157.386 166.722 159.777C166.066 162.632 163.942 164.019 161.199 165.045C157.294 166.505 154.362 165.482 150.215 163.429C125.181 151.035 117.932 145.498 112.54 141.177C107.147 136.855 107.641 130.843 110.238 120.98Z" fill="#64B5F6"/>
<path d="M128.386 35.9571C131.329 35.7295 138.757 35.2746 144.921 35.2756C146.745 35.2759 147.973 35.3738 149.558 35.676C149.558 35.676 152.781 36.6625 154.642 37.2037C155.915 37.5742 156.543 37.4424 157.768 36.9755C158.989 36.5099 159.661 35.8403 160.141 34.6134C160.746 33.0641 160.869 31.26 159.493 30.3531C158.328 29.5856 157.12 29.1573 155.609 28.7782C152.7 28.048 137.068 29.1173 129.616 29.7432C129.616 29.7432 123.251 29.9761 123.528 33.3188C123.768 36.2244 128.386 35.9571 128.386 35.9571Z" fill="#ECA497"/>
<path d="M99.6501 40.5152C96.7179 40.7647 89.3375 41.5118 83.2736 42.5042C81.4798 42.7978 80.2868 43.0917 78.7765 43.6438C78.7765 43.6438 75.7641 45.1327 74.021 45.9643C72.8277 46.5336 72.1887 46.5049 70.9091 46.2425C69.633 45.9809 68.8638 45.4304 68.1949 44.3004C67.3504 42.8737 66.9387 41.1188 68.1469 40.0052C69.1694 39.0629 70.2889 38.4472 71.714 37.8313C74.4586 36.6451 90.0086 35.1829 97.4406 34.6001C97.4406 34.6001 103.739 33.8056 104.005 37.1385C104.235 40.0355 99.6501 40.5152 99.6501 40.5152Z" fill="#ECA497"/>
<path d="M117.141 37.503C112.597 39.9598 121.743 37.8874 126.885 36.5441C126.885 36.5441 130.481 36.2254 130.48 33.3017C130.479 30.5765 128.282 30.3484 128.282 30.3484C126.308 29.7151 121.558 29.0891 119.43 28.8553C115.908 29.5959 108.928 31.5732 109.181 33.5579C109.435 35.5426 114.593 37.0149 117.141 37.503Z" fill="#ECA497"/>
<path d="M110.96 40.2265C115.825 41.9125 106.494 41.3448 101.22 40.8502C101.22 40.8502 97.631 41.1151 97.1619 38.2387C96.7246 35.5577 98.8493 34.9799 98.8493 34.9799C100.689 34.0395 105.261 32.6598 107.317 32.0875C110.901 32.2496 118.085 33.0722 118.156 35.0654C118.226 37.0585 113.388 39.3366 110.96 40.2265Z" fill="#ECA497"/>
<path d="M126.969 60.7312C120.393 60.7963 121.116 54.7648 120.639 53.1669L120.505 49.1243L108.995 49.9985L109.26 52.0996C109.386 52.4282 109.655 53.4595 109.728 54.9561C109.82 56.8269 112.119 62.8951 106.58 63.8035C105.47 63.9856 111.906 66.8408 117.558 65.9139C122.482 65.1064 126.969 60.7312 126.969 60.7312Z" fill="#FFB3A6"/>
<path d="M109.193 62.3084C99.8455 63.8415 99.7333 67.0594 99.988 75.5501C100.243 84.0407 106.12 112.94 108.516 123.213C113.334 125.859 141.848 123.653 144.42 114.617C142.707 100.559 138.468 76.0655 135.766 68.2606C132.389 58.5045 129.211 60.8034 123.734 59.9239C124.727 62.3681 123.21 66.2669 109.193 62.3084Z" fill="#FFB300"/>
<path d="M121.994 34.3848C121.861 33.5686 120.418 31.7797 119.714 30.9873C118.136 30.1285 114.143 28.5485 110.786 29.099C107.429 29.6495 104.714 31.4915 103.777 32.3437C95.0052 39.8165 103.354 49.0355 108.625 52.7108C110.852 52.8852 116.486 52.9682 121.205 51.905C121.764 51.8132 123.171 51.5407 124.319 51.1848C125.467 50.8289 125.503 50.0827 125.377 49.7541C125.173 48.9494 124.829 47.2039 125.085 46.6591C125.339 46.1175 125.095 44.0974 124.938 43.1383C124.994 43.0918 125.186 42.8989 125.674 42.3719C126.407 41.5813 125.756 40.6822 125.34 40.3315C124.576 39.6186 122.953 38.1248 122.563 37.8534C122.174 37.582 122.2 36.5161 122.262 36.0171L121.994 34.3848Z" fill="#FFB3A6"/>
<path d="M112.574 28.1771C116.045 27.2726 119.279 28.3347 120.462 28.9788C120.996 29.1705 121.965 29.7379 121.569 30.4734C121.073 31.3928 120.83 31.2232 119.185 31.7025C117.54 32.1818 116.801 32.9316 115.29 34.227C113.779 35.5225 113.274 37.7005 114.129 40.2842C114.812 42.3512 114.055 42.4614 113.59 42.2582C113.616 41.9747 113.297 41.2586 111.821 40.6627C110.344 40.0667 109.314 41.1436 108.984 41.7565C108.779 42.698 108.752 44.8117 110.282 45.7341C112.195 46.8871 111.824 49.8813 111.438 50.1541C111.129 50.3724 110.397 50.8138 110.07 51.0071C109.644 51.915 108.675 53.5406 108.206 52.7795C107.619 51.8281 106.159 50.8103 104.833 50.6087C103.773 50.4474 103.256 49.7499 103.131 49.4213C102.636 48.5944 101.5 46.839 100.917 46.4319C100.187 45.923 99.022 42.7616 98.9976 41.2989C98.978 40.1288 99.3096 38.3842 99.4778 37.6582C99.9035 36.7503 100.876 34.6213 101.36 33.3685C101.844 32.1158 103.459 31.2783 104.206 31.0161C105.549 30.4466 109.103 29.0816 112.574 28.1771Z" fill="#363246"/>
</svg>
