<svg width="35" height="68" viewBox="0 0 35 68" fill="none" xmlns="http://www.w3.org/2000/svg">
<path d="M28.0639 35.9838C29.8707 36.0752 26.7563 35.0314 24.9732 34.4981C24.9732 34.4981 23.8391 33.9392 23.3075 34.8144C22.812 35.6301 23.428 36.0981 23.428 36.0981C23.9035 36.6467 25.2111 37.6981 25.8054 38.1553C26.9941 38.5744 29.4428 39.2525 29.7281 38.6125C30.0134 37.9724 28.7375 36.5934 28.0639 35.9838Z" fill="#ECA497"/>
<path d="M16.5996 28.2626V17.125H13.2292C13.1905 19.6253 13.1362 25.0805 13.2292 26.8989C13.2469 27.2449 13.27 27.554 13.2997 27.8327C13.5071 29.7796 14.6554 29.4551 15.312 29.2929C16.4612 29.0089 16.6254 28.9684 16.5996 28.2626Z" fill="#ECA497"/>
<path d="M15.0294 12.6026C13.9136 12.4956 13.3312 13.8813 13.1795 14.5876C13.0277 15.2938 12.8809 22.2867 12.8809 22.2867C14.0508 21.8423 16.0096 22.3296 16.8427 22.6287C16.8427 22.6287 17.1633 15.289 16.9785 14.6508C16.7938 14.0126 16.1453 12.7095 15.0294 12.6026Z" fill="#FFCA28"/>
<path d="M24.4177 34.4002C23.4954 33.9328 21.1897 32.7176 19.3451 31.5959C18.7995 31.2641 18.4495 31.0112 18.0303 30.6325C18.0303 30.6325 17.245 29.7509 16.7868 29.2505C16.473 28.9079 16.2611 28.8331 15.8097 28.7501C15.3596 28.6673 15.0365 28.7453 14.6699 29.0253C14.2069 29.3788 13.8417 29.8963 14.0886 30.4181C14.2976 30.8597 14.5813 31.2076 14.9643 31.5959C15.7022 32.3437 20.5749 34.8676 22.9191 36.0361C22.9191 36.0361 24.8661 37.1242 25.3915 36.0735C25.8481 35.1603 24.4177 34.4002 24.4177 34.4002Z" fill="#ECA497"/>
<path d="M34.3989 65.6873C32.6077 66.2928 29.3531 65.096 27.9497 64.4219C27.7495 63.2516 27.8411 62.7483 28.8767 62.5712C29.9124 62.394 29.9931 62.3971 31.0125 62.6515C32.9546 63.3165 36.19 65.0817 34.3989 65.6873Z" fill="#D9D9D9"/>
<path d="M26.4565 67.3941C24.5889 67.689 21.5827 65.9606 20.313 65.0596C20.313 63.8723 20.4881 63.3916 21.5388 63.3916C22.5895 63.3916 22.6686 63.4082 23.6305 63.8308C25.4326 64.8138 28.3242 67.0992 26.4565 67.3941Z" fill="#D9D9D9"/>
<path d="M30.8415 62.4429L30.8198 63.0274C30.8198 63.0274 30.7673 64.4422 29.3386 64.3845C27.7413 64.3201 27.7937 62.9053 27.7937 62.9053L27.8154 62.3208L30.8415 62.4429Z" fill="#D9D9D9"/>
<path d="M27.5243 62.5546C28.2885 50.1994 27.8427 45.2009 27.5243 44.246C27.1628 43.2322 27.2719 42.3798 27.876 41.5005C28.6473 40.3778 29.8407 40.0396 31.1093 40.4355C32.3993 40.8381 33.1123 41.678 33.2558 43.2497C33.4469 46.2388 31.8184 57.2404 30.8632 62.4299C29.4303 63.4263 27.9621 62.9697 27.5243 62.5546Z" fill="#2196F3"/>
<path d="M10.5068 33.756C10.507 28.5819 14.7737 31.7028 16.1148 32.2777C20.788 34.5362 30.4514 39.2503 31.7193 40.0387C31.7193 40.0387 32.8934 41.02 32.9202 41.8812C32.9522 42.9091 32.3614 43.5699 31.5302 44.1636C30.3473 45.0085 29.2715 44.9233 27.6962 44.5967C18.1871 42.6257 15.2614 41.3938 13.067 40.4083C10.8726 39.4228 10.5067 37.337 10.5068 33.756Z" fill="#2196F3"/>
<path d="M23.5894 63.1952L23.5671 63.7718C23.5671 63.7718 23.5131 65.1675 22.0429 65.1107C20.3993 65.0471 20.4533 63.6513 20.4533 63.6513L20.4756 63.0747L23.5894 63.1952Z" fill="#D9D9D9"/>
<path d="M20.1763 63.3054C20.9627 51.1166 20.504 46.1854 20.1763 45.2434C19.8043 44.2432 19.9166 43.4023 20.5382 42.5348C21.3319 41.4273 22.5599 41.0936 23.8654 41.4842C25.1927 41.8813 25.9265 42.71 26.0741 44.2604C26.2707 47.2093 24.595 58.0628 23.612 63.1824C22.1376 64.1654 20.6268 63.715 20.1763 63.3054Z" fill="#64B5F6"/>
<path d="M2.80176 34.4486C2.80196 29.2879 7.10224 32.4007 8.45382 32.9741C13.1638 35.2268 22.9033 39.9286 24.1812 40.715C24.1812 40.715 25.3644 41.6938 25.3915 42.5527C25.4238 43.578 24.8282 44.2371 23.9906 44.8292C22.7983 45.6719 21.7141 45.5869 20.1264 45.2612C10.5425 43.2953 7.59372 42.0666 5.38205 41.0836C3.17037 40.1007 2.80162 38.0203 2.80176 34.4486Z" fill="#64B5F6"/>
<path d="M13.1333 12.0831C10.8568 11.7328 11.4485 9.68927 11.374 9.10995L11.557 7.70521L7.52939 7.35498L7.50188 8.09614C7.5267 8.21683 7.56145 8.58856 7.50188 9.10995C7.42742 9.76168 7.87832 11.9893 5.91239 11.9893C5.5184 11.9893 7.58095 13.3409 9.58689 13.3409C11.3344 13.3409 13.1333 12.0831 13.1333 12.0831Z" fill="#FFB3A6"/>
<path d="M6.90055 11.6206C3.58288 11.6206 3.36172 12.7264 2.96853 15.6753C2.57535 18.6242 2.96866 28.9454 3.21442 32.6315C4.72978 33.8193 14.7095 34.6727 16.1104 31.6958C16.3152 26.74 16.2386 18.0345 15.7471 15.1839C15.1327 11.6206 13.904 12.235 12.061 11.6206C12.2659 12.5217 11.5206 13.7832 6.90055 11.6206Z" fill="#FFB300"/>
<path d="M5.75134 29.1827V17.1611H2.15609C2.11477 19.8599 2.05691 25.748 2.15609 27.7107C2.17497 28.0842 2.19959 28.4179 2.23126 28.7187C2.45256 30.82 3.6774 30.4698 4.37786 30.2947C5.60366 29.9882 5.77877 29.9445 5.75134 29.1827Z" fill="#FFB3A6"/>
<path d="M4.07681 12.2798C2.88656 12.1644 2.2653 13.6601 2.10346 14.4224C1.94161 15.1846 1.78499 22.7326 1.78499 22.7326C3.03294 22.2529 5.12235 22.7788 6.01106 23.1017C6.01106 23.1017 6.35302 15.1794 6.15592 14.4906C5.95882 13.8017 5.26706 12.3952 4.07681 12.2798Z" fill="#FFCA28"/>
<path d="M13.9949 34.6833C13.0031 34.1927 10.5235 32.9169 8.53989 31.7393C7.95309 31.3909 7.5768 31.1255 7.12591 30.7279C7.12591 30.7279 6.2815 29.8023 5.78866 29.277C5.45126 28.9173 5.22336 28.8388 4.73798 28.7516C4.2539 28.6647 3.90649 28.7466 3.51218 29.0406C3.01429 29.4117 2.62158 29.9549 2.88713 30.5028C3.11185 30.9664 3.41687 31.3317 3.82884 31.7393C4.6223 32.5244 9.86244 35.174 12.3833 36.4007C12.3833 36.4007 14.0088 37.2993 14.5341 36.278C15.0127 35.3475 13.9949 34.6833 13.9949 34.6833Z" fill="#FFB3A6"/>
<path d="M12.9071 2.69502C12.9071 2.40536 12.5099 1.70535 12.3113 1.39155C11.8149 1.00534 10.5242 0.23291 9.33277 0.23291C8.14134 0.23291 7.09884 0.715677 6.72651 0.95706C3.27136 3.04261 5.63437 6.70198 7.24776 8.27097C8.00756 8.45746 9.94995 8.80545 11.6412 8.70546C11.8397 8.70546 12.3411 8.69098 12.7581 8.63305C13.1751 8.57512 13.2297 8.31925 13.2049 8.19856C13.1801 7.9089 13.1602 7.28613 13.2794 7.11233C13.3978 6.93954 13.428 6.22752 13.4283 5.88718C13.4504 5.8743 13.5276 5.81852 13.7262 5.66403C14.024 5.43231 13.8503 5.08471 13.7262 4.93988C13.5028 4.65022 13.0262 4.04194 12.9071 3.92607C12.7879 3.81021 12.8574 3.44331 12.9071 3.27434V2.69502Z" fill="#FFB3A6"/>
<path d="M10.0035 0.0157853C11.2545 -0.100079 12.3119 0.450275 12.6842 0.739935C12.858 0.836483 13.1608 1.08751 12.9821 1.31924C12.7587 1.6089 12.6842 1.53648 12.0885 1.6089C11.4928 1.68131 11.1949 1.89856 10.5992 2.26063C10.0035 2.62271 9.70562 3.34686 9.85455 4.28825C9.9737 5.04137 9.70562 5.03654 9.55669 4.93999C9.58152 4.84344 9.51202 4.57791 9.03544 4.28825C8.55887 3.99859 8.14187 4.31239 7.99294 4.5055C7.86883 4.8193 7.73976 5.54827 8.21634 5.9538C8.81205 6.4607 8.51419 7.47451 8.36526 7.54693C8.24612 7.60486 7.96812 7.7159 7.84401 7.76417C7.64544 8.05383 7.21851 8.56074 7.09937 8.27108C6.95044 7.909 6.50365 7.47451 6.05687 7.32968C5.69944 7.21382 5.56044 6.94347 5.53562 6.82278C5.41151 6.50898 5.11861 5.83793 4.9399 5.66414C4.71651 5.44689 4.49311 4.28825 4.56758 3.78135C4.62715 3.37583 4.84061 2.79168 4.9399 2.55029C5.13847 2.26063 5.59519 1.57993 5.83347 1.17441C6.07176 0.768886 6.6774 0.570952 6.95044 0.522675C7.44687 0.401988 8.75248 0.131649 10.0035 0.0157853Z" fill="#363246"/>
<path d="M17.7699 36.4557C19.6544 36.5539 16.4061 35.4335 14.5465 34.861C14.5465 34.861 13.3636 34.2612 12.8092 35.2006C12.2924 36.0761 12.9349 36.5784 12.9349 36.5784C13.4308 37.1672 14.7946 38.2958 15.4144 38.7865C16.6542 39.2362 19.2081 39.9641 19.5057 39.2771C19.8032 38.5902 18.4725 37.11 17.7699 36.4557Z" fill="#FFB3A6"/>
<path fill-rule="evenodd" clip-rule="evenodd" d="M24.2695 12.4229C24.3591 12.3108 24.3378 12.1458 24.2219 12.0542L22.3333 10.5624C22.2174 10.4709 22.0508 10.4875 21.9612 10.5995C21.8716 10.7116 21.8929 10.8767 22.0088 10.9682L23.3482 12.0262C23.0715 12.0293 22.7222 12.0237 22.3228 11.9971C21.301 11.929 19.9628 11.7235 18.6752 11.1795C17.3891 10.636 16.4186 9.87026 15.7692 9.23916C15.4449 8.9239 15.2016 8.64327 15.0403 8.44262C14.9597 8.34234 14.8996 8.26217 14.8602 8.2078C14.8405 8.18062 14.826 8.1599 14.8166 8.14637C14.8119 8.1396 14.8085 8.13462 14.8065 8.13153L14.8043 8.12833L14.804 8.12789C14.804 8.12795 14.8041 8.12801 14.5831 8.267C14.3621 8.40598 14.3622 8.40606 14.3623 8.40615L14.3624 8.40636L14.3628 8.40693L14.3639 8.40863L14.3676 8.41419C14.3708 8.41887 14.3753 8.42545 14.3811 8.43384C14.3927 8.45063 14.4096 8.47468 14.4318 8.50528C14.4761 8.56647 14.5417 8.65387 14.6284 8.76168C14.8016 8.97721 15.0598 9.27482 15.4024 9.6078C16.0871 10.2732 17.1133 11.0839 18.4778 11.6604C19.8408 12.2363 21.2442 12.4495 22.3013 12.5199C22.7739 12.5514 23.1795 12.5546 23.4845 12.5483L22.3899 13.9175C22.3003 14.0296 22.3216 14.1946 22.4375 14.2862C22.5534 14.3777 22.72 14.3611 22.8096 14.249L24.2695 12.4229Z" fill="black"/>
</svg>
